<svg id="Layer_1" data-name="Layer 1" xmlns="http://www.w3.org/2000/svg" viewBox="0 0 400.95 86.53"><defs><style>.cls-1{fill-rule:evenodd;}.cls-2{fill:#c09a72;}.cls-3{fill:#bf311a;}.cls-4{fill:#ce623f;}.cls-5{fill:#dbc2a7;}</style></defs><polygon points="9.06 68.43 8.97 68.35 8.95 68.33 9.03 68.4 9.11 68.48 9.12 68.5 9.06 68.43"/><polygon points="9.23 68.61 9.2 68.57 9.28 68.66 9.3 68.67 9.23 68.61"/><path d="M34.55,39.59c.35-.43,1-.51,1.3-.94a1.37,1.37,0,0,0-.32-2,2.83,2.83,0,0,0-1.75-.1c-.64.06-1.29.12-1.94.12s-1.11.05-1.65.05a3.09,3.09,0,0,0-.91,0,10.19,10.19,0,0,0-1.1-.09,10.72,10.72,0,0,0-2.46-.12,1.42,1.42,0,0,0-1.35,1.06,1.5,1.5,0,0,0,.85,1.68c.34.14.73.16,1.06.31a3,3,0,0,1,1.88,2.41,30,30,0,0,1,.42,6.28c0,1.93,0,3.86-.06,5.78-.13,2.47-.3,4.95-.66,7.4a11.13,11.13,0,0,1-2.25,5.48,6.71,6.71,0,0,1-3.42,1.91,6.31,6.31,0,0,1-3.6-.1,4.8,4.8,0,0,1-1.82-.76,7.55,7.55,0,0,1-2.94-4.45,40,40,0,0,1-1.09-6.8c-.13-2.22-.38-4.45-.36-6.68a46.45,46.45,0,0,1-.07-5,17.51,17.51,0,0,1,.21-3.4A2.8,2.8,0,0,1,14,39.67c.83-.34,2.16-.32,2.37-1.41a1.5,1.5,0,0,0-1.85-1.84c-1.21.21-2.39.57-3.62.68a28.64,28.64,0,0,1-3.82,0,25.65,25.65,0,0,1-2.76-.33,2.9,2.9,0,0,0-1.49,0,1.38,1.38,0,0,0-1,2,3.13,3.13,0,0,0,1.54.87c1.39.84,1.2,2.69,1.4,4.09.15,1.91.21,3.81.3,5.72.14,4.41,0,8.88,1,13.21,1.25,4.81,3.89,7.76,8.69,9.16a18.28,18.28,0,0,0,10.39,0c3.81-1.06,6.13-4.47,7.15-8.13a31.78,31.78,0,0,0,.95-6.94c.12-3.3,0-6.61.06-9.91,0-1.29-.07-2.61,0-3.9A4.28,4.28,0,0,1,34.55,39.59Z"/><polygon points="8.12 67.49 8.04 67.41 8.02 67.39 8.09 67.46 8.17 67.55 8.19 67.56 8.12 67.49"/><polygon points="8.29 67.67 8.26 67.63 8.35 67.72 8.36 67.73 8.29 67.67"/><path d="M72.49,55a1.17,1.17,0,0,0,1.25-1.15c0-.69,0-1.38,0-2.06a5.65,5.65,0,0,1,.12-.92c0-.39-.06-.9-.48-1.07a3.37,3.37,0,0,0-1.61-.1,6.09,6.09,0,0,0-2,.62,8.46,8.46,0,0,0-2.16,1.79,3.86,3.86,0,0,0-.55.66c-.13.17-.28.48-.54.41-.22-.26,0-.65.1-.92a7.6,7.6,0,0,0,.5-1.73c.07-.9-.83-1.88-1.76-1.53-1.13.42-2.21,1-3.3,1.51-.79.34-1.57.72-2.35,1.08-.94.36-2.68,1-2.08,2.3.29.84,1.3.59,1.9,1s.42,1.64.49,2.43v7.9a5.1,5.1,0,0,1-.53,3.08c-.25.29-.62.87-1.06.68a18.38,18.38,0,0,0-2.32-2.83c-1.36-1.82-2.64-3.69-3.82-5.63-.51-.91-1.06-1.81-1.56-2.73-.36-.5,0-.89.3-1.27a13.73,13.73,0,0,1,1.16-1.25c.41-.38.82-.79,1.27-1.13a6.21,6.21,0,0,1,1.41-.65,6.64,6.64,0,0,0,1.93-.64,2.06,2.06,0,0,0,.64-2.74A3,3,0,0,0,53.94,49,7.37,7.37,0,0,0,52,50.16a9.75,9.75,0,0,0-1.39,1.18A17.78,17.78,0,0,0,48.29,54c-.49.6-1,1.17-1.47,1.79a20,20,0,0,1-1.64,1.8c-.24.14-.39.47-.69.5l-.11,0a12.08,12.08,0,0,1-.06-2V42c0-1,0-2,0-3.06.34-1,.89-1.93-.28-2.65-.46-.28-1,0-1.39.23A9.7,9.7,0,0,0,41.5,37c-1.33.57-2.66,1.12-4,1.67a12.42,12.42,0,0,0-2.13,1,1.06,1.06,0,0,0-.15,1.77c.3.29.73.41,1,.68a3,3,0,0,1,.75,1c.64,1.31.38,2.8.43,4.2v6.35c0,4.35,0,8.7,0,13a3.09,3.09,0,0,1-1.23,2.37c-.64.27-1.48.45-1.73,1.19a1.43,1.43,0,0,0,.29,1.3,2.48,2.48,0,0,0,2,.26,18.83,18.83,0,0,1,2.21-.36,20.68,20.68,0,0,1,4.38,0c.85.11,1.64.45,2.48.61a2.23,2.23,0,0,0,2-.51,1.17,1.17,0,0,0-.09-1.6c-.53-.48-1.29-.5-1.9-.85a2.38,2.38,0,0,1-1.46-1.8V61.66c0-.25-.08-.57.09-.78h.1a33.63,33.63,0,0,1,2.31,3.88c.8,1.21,1.47,2.51,2.34,3.67a12.42,12.42,0,0,0,1.58,2,5.67,5.67,0,0,0,1.63,1.29,4.2,4.2,0,0,0,2.25.5,6.32,6.32,0,0,0,2.56-.6c.36-.07.63.31,1,.31a26.78,26.78,0,0,0,2.66-.43,21.13,21.13,0,0,1,5.33,0c1,.08,2,.42,3,.44A2,2,0,0,0,71,71.27a1.27,1.27,0,0,0-.19-1.59c-.84-.63-2-.61-2.84-1.27-1.11-.73-1-2.16-1-3.32V61.31C66.81,56.53,67.67,55.45,72.49,55Z"/><path d="M134.23,64.69a5.9,5.9,0,0,0-1.39-3.59,4.79,4.79,0,0,0-1-1.05A5.78,5.78,0,0,0,130,58.92c-1.53-.75-3.22-.94-4.57-2A2.29,2.29,0,0,1,125,54a2.49,2.49,0,0,1,4.48,1,4,4,0,0,0,.73,2,2.1,2.1,0,0,0,2.57.05,2.05,2.05,0,0,0,.58-2.05c0-.78,0-1.57.06-2.35a2.47,2.47,0,0,0-.25-1.87,1.75,1.75,0,0,0-1-.53,8.87,8.87,0,0,0-1.82-.41,15.48,15.48,0,0,0-7.32.13,7.24,7.24,0,0,0-4.22,3.51,7.74,7.74,0,0,0,.19,7.19,8,8,0,0,0,3.94,2.76c.9.39,1.84.67,2.74,1A2.78,2.78,0,0,1,127.29,66c.53,1.7-.7,2.72-2.26,3a6,6,0,0,1-2.1-.22,2.42,2.42,0,0,1-1.75-2.37,2.37,2.37,0,0,0-.61-2,2.11,2.11,0,0,0-3.15.38,5.3,5.3,0,0,0,0,2.31c.09,1,.19,1.93.21,2.88-.1,1.36.7,1.75,1.91,1.87a21.68,21.68,0,0,0,9.45,0A7.24,7.24,0,0,0,134.23,64.69Z"/><path d="M94.73,64.74A13.23,13.23,0,0,0,92.88,54a10,10,0,0,0-1.66-1.77A7.91,7.91,0,0,0,89.53,51a11.61,11.61,0,0,0-6.35-1.54,10.85,10.85,0,0,0-3.39.56,11.5,11.5,0,0,0-3.24,1.73,11.13,11.13,0,0,0-3.76,5.52,13.19,13.19,0,0,0-.43,6.27,12.18,12.18,0,0,0,2.53,5.19,11.92,11.92,0,0,0,4.42,3,18.85,18.85,0,0,0,2.22.53,21,21,0,0,0,3,.13,12.37,12.37,0,0,0,5.34-1.53l.75-.44a2.86,2.86,0,0,1,.48-.38,12.69,12.69,0,0,0,1.13-.93A9.37,9.37,0,0,0,94.73,64.74Zm-7.37-1.88c-.15,1.69-.24,3.53-1.2,5a2.88,2.88,0,0,1-4.16.38,7,7,0,0,1-1.75-3.4,18.54,18.54,0,0,1-.49-3.63c0-2.34-.16-6.29,2.1-7.66a2.93,2.93,0,0,1,1.6-.35,2.73,2.73,0,0,1,2.11.82,5.13,5.13,0,0,1,1.1,2A22.38,22.38,0,0,1,87.36,62.86Z"/><path d="M117.32,62a13.57,13.57,0,0,0,.07-4.54A8.72,8.72,0,0,0,115,52.14a7.54,7.54,0,0,0-7.32-2,10.46,10.46,0,0,0-3.82,2.2,5.74,5.74,0,0,1-.6.61c-.2.22-.35.58-.64.7l-.08-.07a4.31,4.31,0,0,1,.24-1.58,5.15,5.15,0,0,0,.47-1.42,1.28,1.28,0,0,0-1.55-1.44,3.59,3.59,0,0,0-1.17.55c-.54.26-1.06.57-1.6.8a23.37,23.37,0,0,1-2.9,1c-.91.32-2.25.27-2.64,1.32-.24,1,.43,1.54,1.31,1.86a2.76,2.76,0,0,1,1.28,2.85V75.45a26.64,26.64,0,0,1-.15,3.79,4.41,4.41,0,0,1-.52,1.89,3.08,3.08,0,0,0-.58,1.32c-.09,1.18,1.07,1.63,2,1.18,2.09-1,4.26-1.77,6.34-2.76a6.49,6.49,0,0,0,1.51-.88,1.23,1.23,0,0,0-.24-1.79,7.8,7.8,0,0,0-.72-.31,1.07,1.07,0,0,1-.89-.65,9.26,9.26,0,0,1-.22-2.88V72.48c0-.32-.08-.69.07-1l.1,0a11.46,11.46,0,0,0,4.42,1.05,9.75,9.75,0,0,0,5.17-1.66C115.24,68.89,116.83,65.4,117.32,62ZM110,59.9a14.68,14.68,0,0,1-1.28,6.45,3.88,3.88,0,0,1-2,1.91,2.78,2.78,0,0,1-2.46-.27A3.81,3.81,0,0,1,103,65.86a9.28,9.28,0,0,1-.37-3.06A13.55,13.55,0,0,1,103.3,58a6,6,0,0,1,1.5-2.62,2.83,2.83,0,0,1,3.63-.35,4,4,0,0,1,1.19,2.07A8.7,8.7,0,0,1,110,59.9Z"/><polyline class="cls-1" points="129.39 47.07 129.64 47.16 129.84 47.17 130.24 47.17 130.43 47.15 130.64 47.03 130.64 46.93 130.44 46.81 130.32 46.76 130.26 46.71 130.24 46.64 130.23 46.5 130.23 46.32 130.24 46.14 130.24 45.79 130.23 45.61 130.24 45.45 130.25 45.29 130.26 45.26 130.28 45.3 130.32 45.42 130.38 45.55 130.44 45.68 130.5 45.79 130.55 45.91 130.61 46.03 130.67 46.14 130.73 46.27 130.78 46.38 130.84 46.5 130.89 46.62 130.94 46.74 131 46.88 131.06 47.02 131.18 47.18 131.4 47.15 131.51 46.99 131.58 46.85 131.63 46.71 131.68 46.6 131.86 46.27 131.87 46.27 131.93 46.15 131.98 46.03 132.04 45.91 132.1 45.79 132.16 45.68 132.22 45.56 132.28 45.44 132.34 45.32 132.36 45.28 132.36 46.2 132.36 46.38 132.37 46.55 132.35 46.67 132.32 46.72 132.23 46.78 132.03 46.89 132.13 47.13 132.35 47.17 132.55 47.17 132.94 47.17 133.14 47.15 133.35 47.01 133.36 46.96 133.18 46.8 133.07 46.73 133.02 46.68 133 46.6 133 46.44 133 46.26 133 46.07 132.98 45.9 132.96 45.75 132.94 45.6 132.94 45.44 132.94 45.26 132.94 45.08 132.94 44.9 132.94 44.73 132.95 44.58 132.97 44.49 133.01 44.45 133.13 44.39 133.33 44.27 133.23 44.04 133 43.99 132.79 43.98 132.58 44.01 132.41 44.11 132.32 44.27 132.27 44.41 132.23 44.53 132.18 44.65 132.12 44.77 132.06 44.88 132 45 131.94 45.12 131.88 45.23 131.82 45.34 131.76 45.45 131.7 45.56 131.63 45.68 131.57 45.8 131.51 45.92 131.45 46.04 131.4 46.16 131.4 46.14 131.34 46.02 131.28 45.9 131.22 45.78 131.16 45.66 131.1 45.55 131.05 45.42 130.98 45.31 130.91 45.2 130.84 45.09 130.79 44.98 130.74 44.86 130.68 44.75 130.63 44.63 130.59 44.51 130.54 44.38 130.49 44.22 130.37 44.07 130.18 44 129.97 43.98 129.75 44 129.5 44.09 129.58 44.33 129.72 44.42 129.8 44.47 129.83 44.54 129.84 44.67 129.84 44.85 129.84 45.02 129.82 45.17 129.8 45.32 129.78 45.49 129.77 45.66 129.77 45.85 129.78 46.03 129.77 46.19 129.76 46.35 129.74 46.49 129.71 46.62 129.68 46.7 129.61 46.76 129.48 46.84 129.38 47.05"/><polyline class="cls-1" points="126.69 44.8 126.84 44.67 126.93 44.55 127 44.49 127.08 44.44 127.19 44.42 127.35 44.4 127.51 44.39 127.62 44.41 127.65 44.42 127.67 44.5 127.67 44.66 127.66 44.84 127.66 45.02 127.66 46.08 127.66 46.26 127.66 46.6 127.64 46.69 127.61 46.73 127.51 46.77 127.33 46.81 127.2 47.02 127.22 47.06 127.46 47.15 127.66 47.17 128.23 47.17 128.43 47.16 128.69 47.07 128.71 47.02 128.57 46.83 128.42 46.76 128.34 46.72 128.31 46.66 128.29 46.55 128.3 46.14 128.3 44.9 128.29 44.72 128.29 44.55 128.3 44.44 128.32 44.41 128.4 44.39 128.56 44.39 128.73 44.4 128.87 44.42 128.96 44.45 129.01 44.5 129.05 44.6 129.13 44.76 129.37 44.84 129.46 44.6 129.49 44.41 129.51 44.23 129.5 44.02 129.33 43.92 129.16 43.95 129.01 43.99 128.86 44 127.27 44 127.12 43.99 126.98 43.96 126.83 43.92 126.64 43.98 126.56 44.15 126.51 44.32 126.47 44.49 126.47 44.7"/><path class="cls-2" d="M92.3,19.69,38.6,2.92a.9.9,0,0,0-1.12.59l-.86,2.75a.89.89,0,0,0,.57,1.12L90.91,24.14Z"/><path class="cls-3" d="M118.59,20.73l-21.12-6.6h0a2.43,2.43,0,0,0-2.78,1.41l-1.06,3.4,20.94,6.54a.56.56,0,1,1-.34,1.06L93.32,20,90.16,30.07a2.43,2.43,0,0,0,1.64,2.84l8.62,2.66a1.79,1.79,0,0,1,.72-.93,8.94,8.94,0,0,1,6.36-1.36c1.37.14,2.64.37,3.82.57,2.69.46,4.75.72,5.93,0a18.82,18.82,0,0,0,1.58-1,9.51,9.51,0,0,1,5.66-2.24,4,4,0,0,1,.8.1c2.29-7.32,1.94-7.36-6.7-10"/><path class="cls-4" d="M114.24,26.53,93.32,20l-.74,2.32c1.11-.19,4.33.19,7.62.64,4,.55,9.83,2.76,11.39,3.27a5,5,0,0,0,2.65.31"/><path class="cls-4" d="M118.59,20.73l-21.12-6.6h0a2.43,2.43,0,0,0-2.78,1.41l-1,3.19c1.09-1,3.69-2.66,8-1.73,5.4,1.16,19.31,6.05,24.23,6.85-.94-1.18-3.18-1.84-7.35-3.11"/><path class="cls-5" d="M92.16,20.15l.14-.46L38.6,2.92a.9.9,0,0,0-1.12.59l-.86,2.75a.89.89,0,0,0,.58,1.12L40,8.25c-.94-.7-1.79-1.61-1.48-2.58.63-2,4.24-.38,22.87,5.35,0,0,24.51,7.43,30.78,9.13"/><path d="M124.5,31.58c-3,0-4.58,1.91-6.73,3.16s-5.76,0-10.32-.48a8.08,8.08,0,0,0-5.7,1.2c-.67.47-.24.84,0,.92s5.35,1.8,5.35,1.8a33.74,33.74,0,0,0,6.67,1.18h0a4.47,4.47,0,0,1,2.22.77c.74.67.69,1.72,1.26,1.08a15.91,15.91,0,0,1,2.93-2.71,9.79,9.79,0,0,0,5-6,.66.66,0,0,0-.66-.9m-1.22,2.53a11.42,11.42,0,0,1-5,4.11c1.75-1.45,3.56-2.81,4-4.94.17-.72,1.89-.72,1,.83"/><path d="M119,46.38c-.13-.33-2.07-4.33-2.47-2.59-.31,1.33-1.41,2.3-1.79,3.6s.42,3.47,2.13,3.35c2.23-.14,2.76-2.66,2.13-4.36M117.52,50c-.52.29-1.37,0-.25-.63a2.89,2.89,0,0,0,1.28-2.69,2.85,2.85,0,0,1-1,3.32"/><polygon points="143.17 49.66 145.7 49.66 145.7 59.6 158.61 59.6 158.61 49.66 161.13 49.66 161.13 72.03 158.61 72.03 158.61 61.97 145.7 61.97 145.7 72.03 143.17 72.03 143.17 49.66"/><path d="M164.11,63.85v-.06a8.62,8.62,0,0,1,17.23-.06v.06a8.59,8.59,0,0,1-8.67,8.63,8.46,8.46,0,0,1-8.56-8.57m14.7,0v-.06a6.25,6.25,0,0,0-6.14-6.46,6.1,6.1,0,0,0-6,6.4v.06a6.19,6.19,0,0,0,6.11,6.42,6.09,6.09,0,0,0,6.07-6.36"/><path d="M183.87,55.51h2.45v2.78a6,6,0,0,1,5.34-3.13A5.62,5.62,0,0,1,197,58.45a6.57,6.57,0,0,1,5.81-3.29c3.81,0,6.14,2.56,6.14,6.65V72h-2.46V62.38c0-3.19-1.6-5-4.28-5-2.5,0-4.57,1.86-4.57,5.12V72h-2.43V62.32c0-3.1-1.63-4.93-4.25-4.93s-4.61,2.18-4.61,5.21V72h-2.45Z"/><path d="M220.91,70.28a6.83,6.83,0,0,0,5.21-2.34l1.53,1.38a8.53,8.53,0,0,1-6.81,3.1c-4.53,0-8.24-3.48-8.24-8.63,0-4.8,3.35-8.63,7.92-8.63,4.89,0,7.71,3.9,7.71,8.75,0,.23,0,.49,0,.87H215.09a5.78,5.78,0,0,0,5.82,5.5m4.82-7.48c-.29-3-2-5.57-5.27-5.57-2.84,0-5,2.37-5.37,5.57Z"/><path d="M230.53,69.93l1.25-1.76a9.65,9.65,0,0,0,5.72,2.11c2,0,3.42-1,3.42-2.63v-.06c0-1.66-1.95-2.3-4.13-2.91-2.59-.73-5.46-1.63-5.46-4.66V60c0-2.84,2.36-4.73,5.63-4.73A11.35,11.35,0,0,1,242.9,57l-1.12,1.86a9.36,9.36,0,0,0-4.89-1.6c-1.95,0-3.2,1-3.2,2.4v.06c0,1.57,2.05,2.17,4.25,2.85,2.56.76,5.31,1.75,5.31,4.73v.06c0,3.13-2.59,4.95-5.88,4.95a11.37,11.37,0,0,1-6.84-2.42"/><path d="M247.73,67.65v-10h-2.31V55.51h2.31v-5h2.46v5h5.24v2.17h-5.24v9.66c0,2,1.12,2.74,2.78,2.74a5.2,5.2,0,0,0,2.39-.57v2.11a6.15,6.15,0,0,1-3,.7c-2.65,0-4.66-1.31-4.66-4.67"/><path d="M258.18,76.41l.83-2a5.12,5.12,0,0,0,2.59.61c1.47,0,2.39-.77,3.38-3.1l-7.51-16.46h2.72l6,13.78,5.31-13.78h2.61l-6.93,17.07c-1.4,3.42-3,4.66-5.5,4.66a7.54,7.54,0,0,1-3.51-.83"/><rect x="277.61" y="48.7" width="2.46" height="23.33"/><path d="M292.44,70.28a6.83,6.83,0,0,0,5.21-2.34l1.54,1.38a8.56,8.56,0,0,1-6.81,3.1c-4.54,0-8.25-3.48-8.25-8.63,0-4.8,3.36-8.63,7.93-8.63,4.89,0,7.7,3.9,7.7,8.75,0,.23,0,.49,0,.87H286.62a5.79,5.79,0,0,0,5.82,5.5m4.83-7.48c-.29-3-2-5.57-5.28-5.57-2.84,0-5,2.37-5.37,5.57Z"/><polygon points="308.33 49.66 324.4 49.66 324.4 51.99 310.85 51.99 310.85 59.99 322.97 59.99 322.97 62.29 310.85 62.29 310.85 72.03 308.33 72.03 308.33 49.66"/><path d="M326.22,63.85v-.06a8.61,8.61,0,0,1,17.22-.06v.06a8.59,8.59,0,0,1-8.66,8.63,8.46,8.46,0,0,1-8.56-8.57m14.7,0v-.06a6.26,6.26,0,0,0-6.14-6.46,6.1,6.1,0,0,0-6,6.4v.06a6.19,6.19,0,0,0,6.11,6.42,6.09,6.09,0,0,0,6.07-6.36"/><path d="M346.22,63.85v-.06a8.62,8.62,0,0,1,17.23-.06v.06a8.58,8.58,0,0,1-8.66,8.63,8.47,8.47,0,0,1-8.57-8.57m14.71,0v-.06a6.26,6.26,0,0,0-6.14-6.46,6.1,6.1,0,0,0-6,6.4v.06a6.19,6.19,0,0,0,6.1,6.42,6.09,6.09,0,0,0,6.08-6.36"/><path d="M366.3,63.82v-.07c0-5.4,3.93-8.59,7.89-8.59a7.46,7.46,0,0,1,6.33,3.51v-10H383V72h-2.46V68.71a7.43,7.43,0,0,1-6.33,3.68c-4,0-7.89-3.14-7.89-8.57m14.32,0v-.06a6.15,6.15,0,0,0-6-6.37c-3.2,0-5.82,2.37-5.82,6.37v.06c0,3.9,2.69,6.39,5.82,6.39a6.17,6.17,0,0,0,6-6.39"/><path d="M386.47,69.93l1.24-1.76a9.67,9.67,0,0,0,5.72,2.11c2,0,3.42-1,3.42-2.63v-.06c0-1.66-2-2.3-4.12-2.91-2.59-.73-5.46-1.63-5.46-4.66V60c0-2.84,2.36-4.73,5.62-4.73A11.42,11.42,0,0,1,398.84,57l-1.12,1.86a9.36,9.36,0,0,0-4.89-1.6c-1.95,0-3.2,1-3.2,2.4v.06c0,1.57,2,2.17,4.25,2.85,2.56.76,5.31,1.75,5.31,4.73v.06c0,3.13-2.59,4.95-5.88,4.95a11.35,11.35,0,0,1-6.84-2.42"/></svg>